<svg width="175" height="156" viewBox="0 0 175 156" fill="none" xmlns="http://www.w3.org/2000/svg">
<g clip-path="url(#clip0)">
<path d="M9.595 58.065C7.99591 56.8719 5.29745 57.369 3.39854 57.6673C0.300308 58.065 -0.0994639 61.8432 2.49905 63.1358C3.79831 63.8317 6.59671 63.7323 8.39568 63.1358C8.59557 62.9369 8.69551 62.7381 8.79545 62.5392C9.39511 62.2409 9.89482 61.9426 10.3945 61.7438C10.4945 61.7438 10.4945 61.6444 10.5944 61.6444C11.1941 60.5507 10.9942 59.1587 9.595 58.065Z" fill="#333333"/>
<path d="M158.21 90.3786C159.209 89.2849 158.41 88.2906 157.61 87.6941C157.11 87.2964 156.411 87.5946 156.311 88.2906C156.211 89.8815 156.511 92.1683 158.21 90.3786Z" fill="#333333"/>
<path d="M7.09603 90.478C6.59631 95.0516 11.9932 93.4608 13.4924 90.9752C16.1908 86.501 7.4958 86.6004 7.09603 90.478Z" fill="#333333"/>
<path d="M140.22 122.493C135.922 124.084 139.82 128.161 142.618 128.36C147.915 128.757 143.918 121.101 140.22 122.493Z" fill="#333333"/>
<path d="M163.507 58.761C163.407 62.1415 170.703 62.9369 170.703 59.5564C170.703 55.9771 163.607 54.4857 163.507 58.761Z" fill="#333333"/>
<path d="M124.629 14.914C127.927 15.8088 130.426 9.04781 127.127 8.15297C123.629 7.25813 120.531 13.8203 124.629 14.914Z" fill="#333333"/>
<path d="M14.7916 29.0325C16.6905 29.828 19.389 30.0268 18.7893 27.1434C18.0897 24.1606 13.7922 23.3652 11.4935 22.4704C6.1965 22.4704 13.2924 28.436 14.7916 29.0325Z" fill="#333333"/>
<path d="M60.8653 7.95429C61.7648 9.8434 63.5638 11.8319 64.963 9.34626C66.562 6.66175 63.9635 3.18183 62.8642 0.89502C59.1663 -2.78376 60.1657 6.36347 60.8653 7.95429Z" fill="#333333"/>
<path d="M175 29.2314C175.3 23.8623 162.807 28.1377 162.107 31.2199C160.608 37.8815 174.8 32.0153 175 29.2314Z" fill="#333333"/>
<path d="M61.4649 145.262C60.1656 146.952 59.6659 149.438 60.1656 151.725C60.4654 153.514 63.064 153.813 63.6636 152.122C64.5631 150.034 64.8629 147.648 65.5625 145.461C65.7624 144.566 65.7624 144.069 65.5625 143.771C65.4626 143.671 65.2627 143.572 65.1628 143.472C64.1633 143.174 62.2644 144.268 61.4649 145.262Z" fill="#333333"/>
<path d="M36.879 124.681C34.7802 125.874 33.4809 128.459 33.1811 131.044C33.0812 132.535 34.8801 133.43 35.9795 132.337C37.7785 130.547 39.0777 128.26 40.5769 126.272C41.0766 125.576 41.2765 125.078 41.1765 124.681C41.0766 124.482 40.9767 124.382 40.8767 124.184C40.1771 123.686 37.9784 124.084 36.879 124.681Z" fill="#333333"/>
<path d="M107.039 146.654C104.34 148.046 107.339 156.895 110.237 156C112.736 155.304 109.637 145.361 107.039 146.654Z" fill="#333333"/>
<path d="M140.72 86.3021C142.419 82.9216 143.618 79.8394 144.018 76.1606C144.118 75.4646 145.417 69.9962 145.417 69.9962C147.916 59.457 143.918 54.088 140.72 48.6195C139.92 47.2276 138.921 45.4379 137.521 44.543C137.022 44.2448 135.922 43.2505 135.223 42.8528C134.623 42.5545 131.925 41.7591 131.225 41.5603C126.628 39.4723 123.23 39.0746 118.133 39.0746C107.738 38.8757 97.3444 45.6367 90.9481 53.2926C87.4501 57.5679 86.0509 58.2639 82.5529 53.7897C79.5546 50.0115 76.2565 46.1339 71.5591 44.3442C63.2639 41.262 52.0703 43.3499 44.3747 47.0287C35.8795 51.1052 31.1822 59.9541 29.783 69.0019C26.4849 90.2792 47.8727 113.446 65.3627 122.891C70.4598 125.576 76.0566 126.868 80.9538 129.95C85.1514 132.535 88.5494 134.524 93.2468 131.74C97.5443 129.055 102.042 125.476 105.939 122.195C110.337 118.417 115.834 115.931 120.131 111.954C128.427 104.199 135.722 96.4436 140.72 86.3021Z" fill="#9A79FE"/>
</g>
<defs>
<clipPath id="clip0">
<rect width="175" height="156" fill="white"/>
</clipPath>
</defs>
</svg>
